<?xml version="1.0" encoding="utf-8"?>
<!-- Generator: Adobe Illustrator 21.0.0, SVG Export Plug-In . SVG Version: 6.00 Build 0)  -->
<svg version="1.1" id="Layer_1" xmlns="http://www.w3.org/2000/svg" xmlns:xlink="http://www.w3.org/1999/xlink" x="0px" y="0px"
	 viewBox="0 0 1024 1024" style="enable-background:new 0 0 1024 1024;" xml:space="preserve">
<style type="text/css">
	.st0{fill:none;stroke:#FFFFFF;stroke-width:96;stroke-miterlimit:10;}
	.st1{fill:#FFFFFF;stroke:#FFFFFF;stroke-width:24;stroke-miterlimit:10;}
	.st2{fill:#FFFFFF;}
	.st3{font-family:'Bauhaus93';}
	.st4{font-size:400px;}
</style>
<path class="st0" d="M274.1,155.5c17.5-27.6,48.3-46.1,83.3-46.1h459.4c54.1,0,98.4,44.3,98.4,98.4v459.4
	c0,33.8-17.2,63.7-43.4,81.5"/>
<path class="st1" d="M666.7,257.9H207.3c-54.1,0-98.4,44.3-98.4,98.4v459.4c0,54.1,44.3,98.4,98.4,98.4h459.4
	c54.1,0,98.4-44.3,98.4-98.4V356.3C765.1,302.2,720.8,257.9,666.7,257.9z M437,802.1c-120.8,0-218.8-97.9-218.8-218.8
	c0-120.8,97.9-218.8,218.8-218.8s218.8,97.9,218.8,218.8C655.8,704.1,557.8,802.1,437,802.1z"/>
<text transform="matrix(1 0 0 1 330.8474 719.6992)" class="st2 st3 st4">?</text>
</svg>
