<svg id="Layer_1" data-name="Layer 1" xmlns="http://www.w3.org/2000/svg" viewBox="0 0 866.3 864.7"><defs><style>.cls-1{fill:none;stroke-width:96px;}.cls-1,.cls-2{stroke:#fff;stroke-miterlimit:10;}.cls-2{fill:#fff;stroke-width:24px;}.cls-3{isolation:isolate;font-size:400px;fill:#ec1c24;font-family:Bauhaus93, Bauhaus 93;}</style></defs><title>NoArrowsRandomColored</title><path class="cls-1" d="M274.1,155.5a98.71,98.71,0,0,1,83.3-46.1H816.8c54.1,0,98.4,44.3,98.4,98.4V667.2a98.46,98.46,0,0,1-43.4,81.5" transform="translate(-96.9 -61.4)"/><path class="cls-2" d="M666.7,257.9H207.3c-54.1,0-98.4,44.3-98.4,98.4V815.7c0,54.1,44.3,98.4,98.4,98.4H666.7c54.1,0,98.4-44.3,98.4-98.4V356.3C765.1,302.2,720.8,257.9,666.7,257.9ZM437,802.1c-120.8,0-218.8-97.9-218.8-218.8S316.1,364.5,437,364.5s218.8,97.9,218.8,218.8S557.8,802.1,437,802.1Z" transform="translate(-96.9 -61.4)"/><text class="cls-3" transform="translate(233.95 658.3)">?</text></svg>